<svg xmlns="http://www.w3.org/2000/svg" width="1200" height="630" viewBox="0 0 1200 630" role="img" aria-label="AGENTS.md durable context">
  <defs>
    <linearGradient id="g" x1="0" y1="0" x2="1" y2="1"><stop offset="0" stop-color="#fffaf0"/><stop offset="1" stop-color="#f3f7fb"/></linearGradient>
    <filter id="shadow" x="-20%" y="-20%" width="140%" height="140%"><feDropShadow dx="0" dy="18" stdDeviation="24" flood-color="#2e271c" flood-opacity=".12"/></filter>
    <pattern id="grid" width="38" height="38" patternUnits="userSpaceOnUse"><path d="M38 0H0V38" fill="none" stroke="#dedbd2" stroke-width="1" opacity=".5"/></pattern>
  </defs>
  <rect width="1200" height="630" fill="url(#g)"/>
  <rect width="1200" height="630" fill="url(#grid)" opacity=".55"/>
  <circle cx="1020" cy="110" r="150" fill="#f2c94c" opacity=".12"/>
  <circle cx="130" cy="520" r="190" fill="#f2c94c" opacity=".13"/>
  <g filter="url(#shadow)"><rect x="300" y="95" width="600" height="440" rx="24" fill="#fff" stroke="#dedbd2"/><rect x="360" y="160" width="300" height="32" rx="8" fill="#e8f0fe"/><rect x="360" y="230" width="420" height="18" rx="6" fill="#e8e4da"/><rect x="360" y="275" width="360" height="18" rx="6" fill="#e8e4da"/><rect x="360" y="320" width="390" height="18" rx="6" fill="#e8e4da"/><rect x="360" y="390" width="240" height="44" rx="10" fill="#f7f6f3" stroke="#2f3437" stroke-width="4"/><path d="M805 175v210M760 215h90M760 275h90M760 335h90" stroke="#2563eb" stroke-width="8" stroke-linecap="round"/></g>
</svg>